<svg id="Layer_1" data-name="Layer 1" xmlns="http://www.w3.org/2000/svg" viewBox="0 0 600 187.43"><defs><style>.cls-1{fill:#fff;}</style></defs><title>Artboard 3</title><path class="cls-1" d="M0,167.23A1.2,1.2,0,0,1,1.17,166H9a7.74,7.74,0,0,1,5.5,1.86,4.67,4.67,0,0,1,1.35,3.37v.06a5.09,5.09,0,0,1-3.34,4.87c2.5.75,4.51,2.19,4.51,5.08v.06c0,3.6-3,5.74-7.63,5.74H1.17A1.2,1.2,0,0,1,0,185.87Zm8.57,8.18c2.85,0,4.84-1.3,4.84-3.76v-.06c0-2.08-1.66-3.43-4.66-3.43H2.34v7.25Zm.84,9.52c3.18,0,5.17-1.41,5.17-3.75v-.06c0-2.29-1.93-3.61-5.59-3.61H2.34v7.42Z"/><path class="cls-1" d="M24.71,185.86V167.23a1.2,1.2,0,0,1,1.17-1.2H39a1.08,1.08,0,0,1,0,2.16H27.08v7.18H37.6a1.1,1.1,0,0,1,1.08,1.09,1.08,1.08,0,0,1-1.08,1.08H27.08v7.36h12a1.09,1.09,0,0,1,0,2.17H25.88a1.2,1.2,0,0,1-1.17-1.21"/><path class="cls-1" d="M47.1,184.54a1.07,1.07,0,0,1-.45-.9,1.15,1.15,0,0,1,1.14-1.17,1,1,0,0,1,.72.27,9.6,9.6,0,0,0,6.65,2.49c2.82,0,4.69-1.5,4.69-3.57v-.06c0-2-1.06-3.07-5.48-4-4.83-1-7.06-2.62-7.06-6.07v-.06c0-3.31,2.92-5.74,6.91-5.74a10.77,10.77,0,0,1,6.71,2.07,1.22,1.22,0,0,1,.51,1,1.14,1.14,0,0,1-1.14,1.14,1.16,1.16,0,0,1-.7-.21,8.79,8.79,0,0,0-5.44-1.83c-2.73,0-4.47,1.5-4.47,3.4v.06c0,2,1.08,3.09,5.71,4.08s6.85,2.74,6.85,6v.06c0,3.6-3,6-7.18,6a12.28,12.28,0,0,1-8-2.83"/><path class="cls-1" d="M70.1,167.23a1.2,1.2,0,0,1,1.17-1.2H78c4.75,0,7.88,2.52,7.88,6.67v.06c0,4.54-3.79,6.88-8.27,6.88H72.47V186a1.19,1.19,0,1,1-2.37,0Zm7.57,10.25c3.49,0,5.77-1.86,5.77-4.63v-.06c0-3-2.25-4.57-5.65-4.57H72.47v9.26Z"/><path class="cls-1" d="M92.25,176.61v-.06a10.73,10.73,0,1,1,21.46-.06v.06a10.73,10.73,0,1,1-21.46.06m19,0v-.06a8.37,8.37,0,0,0-8.3-8.69c-4.81,0-8.24,3.85-8.24,8.63v.06a8.36,8.36,0,0,0,8.3,8.68c4.81,0,8.24-3.84,8.24-8.62"/><path class="cls-1" d="M121.74,167.08a1.19,1.19,0,1,1,2.37,0v11.51l12-12.29a1.37,1.37,0,0,1,.94-.42,1.19,1.19,0,0,1,1.14,1.17,1.17,1.17,0,0,1-.39.84l-7.46,7.39,8,9.86a1.31,1.31,0,0,1,.33.88,1.22,1.22,0,0,1-1.2,1.2,1.17,1.17,0,0,1-1-.54l-7.84-9.77-4.54,4.54V186a1.19,1.19,0,1,1-2.37,0Z"/><path class="cls-1" d="M146.2,185.86V167.23a1.21,1.21,0,0,1,1.18-1.2h13.07a1.08,1.08,0,1,1,0,2.16H148.58v7.18H159.1a1.1,1.1,0,0,1,1.08,1.09,1.08,1.08,0,0,1-1.08,1.08H148.58v7.36h12a1.09,1.09,0,0,1,0,2.17H147.38a1.21,1.21,0,0,1-1.18-1.21"/><path class="cls-1" d="M181.37,167.11a1.19,1.19,0,0,1,1.17-1.17h.28a1.3,1.3,0,0,1,1.11.63l7.51,11.3,7.52-11.3a1.27,1.27,0,0,1,1.11-.63h.27a1.19,1.19,0,0,1,1.17,1.17V186a1.2,1.2,0,0,1-1.17,1.21,1.23,1.23,0,0,1-1.2-1.21V170.32l-6.74,9.89a1.17,1.17,0,0,1-1,.61,1.22,1.22,0,0,1-1-.61l-6.7-9.86v15.7a1.16,1.16,0,1,1-2.32,0Z"/><path class="cls-1" d="M209.18,185.5l8.53-18.66a1.55,1.55,0,0,1,1.51-1.05h.12a1.51,1.51,0,0,1,1.47,1.05l8.54,18.63a1.65,1.65,0,0,1,.15.6,1.14,1.14,0,0,1-1.15,1.15,1.29,1.29,0,0,1-1.17-.87L225,181.51H213.45l-2.2,4.9a1.19,1.19,0,0,1-1.14.81,1.08,1.08,0,0,1-1.08-1.08,1.38,1.38,0,0,1,.15-.64m14.88-6.16-4.84-10.76-4.84,10.76Z"/><path class="cls-1" d="M235.93,184.54a1.07,1.07,0,0,1-.45-.9,1.15,1.15,0,0,1,1.14-1.17,1,1,0,0,1,.72.27,9.6,9.6,0,0,0,6.65,2.49c2.82,0,4.68-1.5,4.68-3.57v-.06c0-2-1-3.07-5.47-4-4.84-1-7.06-2.62-7.06-6.07v-.06c0-3.31,2.92-5.74,6.91-5.74a10.77,10.77,0,0,1,6.71,2.07,1.22,1.22,0,0,1,.51,1,1.14,1.14,0,0,1-1.14,1.14,1.12,1.12,0,0,1-.7-.21,8.79,8.79,0,0,0-5.44-1.83c-2.73,0-4.48,1.5-4.48,3.4v.06c0,2,1.09,3.09,5.72,4.08s6.85,2.74,6.85,6v.06c0,3.6-3,6-7.18,6a12.26,12.26,0,0,1-8-2.83"/><path class="cls-1" d="M257.87,184.54a1.07,1.07,0,0,1-.45-.9,1.15,1.15,0,0,1,1.14-1.17,1.08,1.08,0,0,1,.73.27,9.56,9.56,0,0,0,6.64,2.49c2.82,0,4.69-1.5,4.69-3.57v-.06c0-2-1.06-3.07-5.47-4-4.84-1-7.07-2.62-7.07-6.07v-.06c0-3.31,2.92-5.74,6.92-5.74a10.74,10.74,0,0,1,6.7,2.07,1.22,1.22,0,0,1,.51,1,1.14,1.14,0,0,1-1.14,1.14,1.11,1.11,0,0,1-.69-.21,8.83,8.83,0,0,0-5.44-1.83c-2.74,0-4.48,1.5-4.48,3.4v.06c0,2,1.08,3.09,5.71,4.08s6.85,2.74,6.85,6v.06c0,3.6-3,6-7.18,6a12.28,12.28,0,0,1-8-2.83"/><path class="cls-1" d="M279.22,185.5l8.53-18.66a1.55,1.55,0,0,1,1.5-1.05h.12a1.52,1.52,0,0,1,1.48,1.05l8.53,18.63a1.65,1.65,0,0,1,.15.6,1.14,1.14,0,0,1-1.14,1.15,1.29,1.29,0,0,1-1.17-.87L295,181.51H283.48l-2.19,4.9a1.19,1.19,0,0,1-1.14.81,1.08,1.08,0,0,1-1.08-1.08,1.38,1.38,0,0,1,.15-.64m14.87-6.16-4.84-10.76-4.83,10.76Z"/><path class="cls-1" d="M305.07,176.61v-.06c0-5.77,4.23-10.88,10.55-10.88a11.22,11.22,0,0,1,7.18,2.25,1.21,1.21,0,0,1-.69,2.17,1.27,1.27,0,0,1-.75-.31,9,9,0,0,0-5.83-1.92c-4.66,0-8,3.94-8,8.63v.06c0,5,3.22,8.74,8.33,8.74a9.92,9.92,0,0,0,6.07-2.1V178h-5.65a1.07,1.07,0,0,1,0-2.13H323a1.2,1.2,0,0,1,1.17,1.2v6.4a1.69,1.69,0,0,1-.81,1.44,12.77,12.77,0,0,1-7.63,2.56c-6.62,0-10.7-4.81-10.7-10.82"/><path class="cls-1" d="M332.57,185.86V167.23a1.2,1.2,0,0,1,1.17-1.2h13.08a1.08,1.08,0,0,1,0,2.16H334.94v7.18h10.52a1.11,1.11,0,0,1,1.09,1.09,1.08,1.08,0,0,1-1.09,1.08H334.94v7.36h12a1.09,1.09,0,0,1,0,2.17H333.74a1.2,1.2,0,0,1-1.17-1.21"/><path class="cls-1" d="M373.3,168.22h-6.1a1.1,1.1,0,0,1-1.12-1.08A1.13,1.13,0,0,1,367.2,166h14.6a1.14,1.14,0,0,1,1.12,1.11,1.11,1.11,0,0,1-1.12,1.08h-6.1V186a1.2,1.2,0,0,1-2.4,0Z"/><path class="cls-1" d="M390.22,167.23a1.2,1.2,0,0,1,1.17-1.2h7.88a8.31,8.31,0,0,1,6,2.1,5.82,5.82,0,0,1,1.62,4.15v.06c0,3.46-2.34,5.47-5.62,6.1l5.23,6.73a1.29,1.29,0,0,1,.39.88,1.24,1.24,0,0,1-1.2,1.17,1.38,1.38,0,0,1-1.11-.63l-5.92-7.7h-6V186a1.19,1.19,0,1,1-2.38,0Zm8.84,9.53c3.15,0,5.41-1.63,5.41-4.33v-.06c0-2.59-2-4.15-5.38-4.15H392.6v8.54Z"/><path class="cls-1" d="M415,185.86V167.23a1.2,1.2,0,0,1,1.17-1.2h13.08a1.08,1.08,0,1,1,0,2.16H417.33v7.18h10.52a1.11,1.11,0,0,1,1.09,1.09,1.08,1.08,0,0,1-1.09,1.08H417.33v7.36h12a1.09,1.09,0,0,1,0,2.17H416.13a1.2,1.2,0,0,1-1.17-1.21"/><path class="cls-1" d="M436.81,185.5l8.54-18.66a1.55,1.55,0,0,1,1.5-1.05H447a1.51,1.51,0,0,1,1.47,1.05L457,185.47a1.65,1.65,0,0,1,.15.6,1.14,1.14,0,0,1-1.14,1.15,1.29,1.29,0,0,1-1.17-.87l-2.2-4.84H441.08l-2.19,4.9a1.2,1.2,0,0,1-1.15.81,1.08,1.08,0,0,1-1.08-1.08,1.38,1.38,0,0,1,.15-.64m14.88-6.16-4.84-10.76L442,179.34Z"/><path class="cls-1" d="M467.65,168.22h-6.1a1.1,1.1,0,0,1-1.11-1.08,1.13,1.13,0,0,1,1.11-1.11h14.61a1.13,1.13,0,0,1,1.11,1.11,1.1,1.1,0,0,1-1.11,1.08h-6.1V186a1.21,1.21,0,0,1-2.41,0Z"/><path class="cls-1" d="M484.58,167.11a1.19,1.19,0,0,1,1.17-1.17H486a1.3,1.3,0,0,1,1.11.63l7.51,11.3,7.52-11.3a1.27,1.27,0,0,1,1.11-.63h.27a1.19,1.19,0,0,1,1.17,1.17V186a1.2,1.2,0,0,1-1.17,1.21,1.23,1.23,0,0,1-1.2-1.21V170.32l-6.73,9.89a1.18,1.18,0,0,1-1,.61,1.22,1.22,0,0,1-1-.61l-6.7-9.86v15.7a1.16,1.16,0,1,1-2.31,0Z"/><path class="cls-1" d="M513.67,185.86V167.23a1.2,1.2,0,0,1,1.17-1.2h13.08a1.08,1.08,0,1,1,0,2.16H516.05v7.18h10.52a1.1,1.1,0,0,1,1.08,1.09,1.08,1.08,0,0,1-1.08,1.08H516.05v7.36h12a1.09,1.09,0,0,1,0,2.17H514.84a1.2,1.2,0,0,1-1.17-1.21"/><path class="cls-1" d="M536.82,167.11a1.19,1.19,0,0,1,1.17-1.17h.33a1.45,1.45,0,0,1,1.2.69l12.78,16.29V167.05a1.16,1.16,0,1,1,2.31,0v19a1.06,1.06,0,0,1-1.08,1.11h-.12a1.62,1.62,0,0,1-1.23-.72l-13-16.69v16.3a1.16,1.16,0,1,1-2.31,0Z"/><path class="cls-1" d="M569.13,168.22H563a1.1,1.1,0,0,1-1.11-1.08A1.13,1.13,0,0,1,563,166h14.61a1.13,1.13,0,0,1,1.11,1.11,1.1,1.1,0,0,1-1.11,1.08h-6.11V186a1.2,1.2,0,1,1-2.4,0Z"/><path class="cls-1" d="M584.85,184.54a1.07,1.07,0,0,1-.45-.9,1.15,1.15,0,0,1,1.14-1.17,1,1,0,0,1,.72.27,9.6,9.6,0,0,0,6.65,2.49c2.82,0,4.69-1.5,4.69-3.57v-.06c0-2-1.06-3.07-5.48-4-4.83-1-7.06-2.62-7.06-6.07v-.06c0-3.31,2.92-5.74,6.91-5.74a10.77,10.77,0,0,1,6.71,2.07,1.22,1.22,0,0,1,.51,1,1.14,1.14,0,0,1-1.14,1.14,1.16,1.16,0,0,1-.7-.21,8.79,8.79,0,0,0-5.44-1.83c-2.73,0-4.47,1.5-4.47,3.4v.06c0,2,1.08,3.09,5.71,4.08s6.85,2.74,6.85,6v.06c0,3.6-3,6-7.18,6a12.28,12.28,0,0,1-8-2.83"/><path class="cls-1" d="M47.83,59.66A2.37,2.37,0,0,1,48,56.49L97.7,7.44a3.28,3.28,0,0,0,.74-3.63,3.27,3.27,0,0,0-3.08-2.07h-.57a3.3,3.3,0,0,0-2.35,1l-81.09,81a2.33,2.33,0,0,1-1.66.7A2.37,2.37,0,0,1,7.29,82V5.07A3.33,3.33,0,0,0,4,1.74H3.33A3.33,3.33,0,0,0,0,5.07V129a3.34,3.34,0,0,0,3.33,3.33H4A3.34,3.34,0,0,0,7.29,129V97.67A2.44,2.44,0,0,1,8,96l31.5-31.16A2.38,2.38,0,0,1,43,65l52.14,66a3.28,3.28,0,0,0,2.61,1.27h.85a3.33,3.33,0,0,0,2.61-5.4Z"/><path class="cls-1" d="M231.89,1.74h-.48a3.34,3.34,0,0,0-3.33,3.33V112.94a2.37,2.37,0,0,1-2.4,2.39,2.3,2.3,0,0,1-1.83-.9L134.91,3a3.31,3.31,0,0,0-2.6-1.25h-1.52a3.33,3.33,0,0,0-3.32,3.33V129a3.33,3.33,0,0,0,3.32,3.33h.48A3.34,3.34,0,0,0,134.6,129V20.18a2.31,2.31,0,0,1,.74-1.74A2.46,2.46,0,0,1,137,17.8a2.29,2.29,0,0,1,1.83.89l89.68,112.36a3.29,3.29,0,0,0,2.6,1.26h.78a3.33,3.33,0,0,0,3.32-3.33V5.07a3.33,3.33,0,0,0-3.32-3.33"/><path class="cls-1" d="M490.8,1.74h-93a3.33,3.33,0,1,0,0,6.66H438.2a2.37,2.37,0,0,1,2.37,2.37V129a3.34,3.34,0,0,0,3.33,3.33h.63a3.34,3.34,0,0,0,3.33-3.33V10.77a2.38,2.38,0,0,1,2.38-2.37H490.8a3.33,3.33,0,0,0,0-6.66"/><path class="cls-1" d="M597.64,86.15a26,26,0,0,0-7.64-9.8,49.67,49.67,0,0,0-13.75-7.58,128.79,128.79,0,0,0-20.56-5.67,137.3,137.3,0,0,1-19.57-5.25,44.4,44.4,0,0,1-12.19-6.41,20,20,0,0,1-6.25-7.86,25.31,25.31,0,0,1-1.82-9.82v-.37a22,22,0,0,1,2.45-10.06,26.81,26.81,0,0,1,7-8.54,35,35,0,0,1,11.05-5.94,44.87,44.87,0,0,1,14.38-2.2,63,63,0,0,1,20,3.17,65.16,65.16,0,0,1,18.09,9.49,3.35,3.35,0,0,0,2,.65,3.29,3.29,0,0,0,2.63-1.29l.37-.47a3.34,3.34,0,0,0-.7-4.75A74.15,74.15,0,0,0,575.33,4a69.87,69.87,0,0,0-24.22-4A53.28,53.28,0,0,0,534,2.62a41.5,41.5,0,0,0-13.39,7.3A35.3,35.3,0,0,0,511.8,20.8,28.37,28.37,0,0,0,508.57,34v.37A31.36,31.36,0,0,0,511,47a25.79,25.79,0,0,0,7.83,9.81,51.3,51.3,0,0,0,13.85,7.38,136.93,136.93,0,0,0,20.36,5.58,139.38,139.38,0,0,1,19.39,5.25,46.52,46.52,0,0,1,12.2,6.32,19.44,19.44,0,0,1,6.24,7.77,25.81,25.81,0,0,1,1.82,10v.37a24.52,24.52,0,0,1-2.55,11.08,26.44,26.44,0,0,1-7.37,8.91,35.84,35.84,0,0,1-11.63,5.94,51.13,51.13,0,0,1-15.06,2.1,65.61,65.61,0,0,1-25.69-4.86,72.61,72.61,0,0,1-19.78-12.75,3.31,3.31,0,0,0-2.2-.83,3.34,3.34,0,0,0-2.45,1.07l-.36.4a3.3,3.3,0,0,0-.88,2.44,3.37,3.37,0,0,0,1.16,2.34,81,81,0,0,0,21.74,13.56,73.26,73.26,0,0,0,28.11,5.29A59.63,59.63,0,0,0,574,131.59a41.33,41.33,0,0,0,13.88-7.39A34.87,34.87,0,0,0,596.79,113,31.15,31.15,0,0,0,600,98.93v-.37a31.1,31.1,0,0,0-2.36-12.41"/><path class="cls-1" d="M371.38,21.56A66.34,66.34,0,0,0,324.32,2.07a3.17,3.17,0,0,0,0,6.33,60.22,60.22,0,1,1,0,120.43,47.23,47.23,0,0,1-33.61-13.93c-.43-.43-.85-.88-1.26-1.33a70.31,70.31,0,0,0,9.08,4.24,72.44,72.44,0,0,0,25.79,4.68,53.88,53.88,0,1,0,0-107.75,3.17,3.17,0,0,0,0,6.34,47.54,47.54,0,1,1,0,95.07,66,66,0,0,1-23.54-4.27,60.82,60.82,0,0,1-19.15-11.6c-.51-.46-1-.93-1.48-1.39a47.44,47.44,0,0,1-3.36-17.59A53.27,53.27,0,0,0,286.23,94a53.64,53.64,0,0,0,38.09,15.78,41.2,41.2,0,1,0,0-82.39,3.17,3.17,0,0,0,0,6.34,34.86,34.86,0,1,1,0,69.71A47.54,47.54,0,0,1,278.5,68.6,47.13,47.13,0,0,1,286.16,53a47.81,47.81,0,0,1,10.5-10.32A47,47,0,0,1,310,36a3.17,3.17,0,0,0-1.92-6,54,54,0,0,0-27,19.24,54.9,54.9,0,0,0-4.29,6.76A47.46,47.46,0,0,1,288.67,24.5a3.17,3.17,0,0,0-4.75-4.2,53.91,53.91,0,0,0-12,48.28,54.36,54.36,0,0,0-1.5,12.71,52.67,52.67,0,0,0,.3,5.63,49,49,0,0,1-6.64-24.56,3.17,3.17,0,1,0-6.33,0,54.77,54.77,0,0,0,5.28,23.52,59.54,59.54,0,0,0,11.74,16.64,53.79,53.79,0,0,0,49.52,32.64,66.53,66.53,0,0,0,47.06-113.6"/></svg>