<svg id="Layer_1" data-name="Layer 1" xmlns="http://www.w3.org/2000/svg" viewBox="0 0 400 160"><defs><style>.cls-1{fill:#222;}</style></defs><title>Artboard 1</title><path class="cls-1" d="M210.24,48.65a65.34,65.34,0,0,1-14.57,16.79c-6,5-11.59,7.62-16.55,7.62-5.19,0-7.93-2.67-7.93-7.72,0-3.8,1.6-9.24,4.76-16.17l4.09-8.9-4.93,3.81c-2.22,1.83-4.51,3.87-6.81,6.07S162,56.93,156.22,63.81l-8.51,10.38c-1.54,1.76-2.91,2.6-4.21,2.6-.59,0-1.95-.22-1.95-2.31A10.28,10.28,0,0,1,143,70l14.21-20.42c8.43-12.36,12.71-20.25,12.71-23.45,0-.52,0-2.08-4.44-2.08-4,0-9.71,2.52-17,7.48a43.13,43.13,0,0,0-10.39,10.12c-2.93,4-4.41,7.29-4.41,9.83,0,1.44.49,3.36,4.72,3.36,3.19,0,6.54-1.52,10-4.51,2-1.66,2.32-1.78,2.66-1.78a1.2,1.2,0,0,1,.7.3,1.28,1.28,0,0,1,.22,1c-.62,2.17-2.7,4-6.37,5.83a22,22,0,0,1-9.44,2.6,8.58,8.58,0,0,1-1.53-.09c-4.35-.9-6.51-3.08-6.51-6.46,0-3.18,1.75-7,5.21-11.34a54.62,54.62,0,0,1,23.34-17c4.9-1.87,9-2.82,12.21-2.82,5.37,0,6.5,2.45,6.5,4.5,0,5.2-5.92,15.68-18.06,32a160.93,160.93,0,0,1,12-11.76c1.69-1.5,4.59-4.23,8.85-8.32a52.89,52.89,0,0,1,7.22-5.65,5.93,5.93,0,0,1,3.13-.7,3.36,3.36,0,0,1,3,1.35.69.69,0,0,1,0,.82,96.3,96.3,0,0,0-11.69,18.56c-3.29,6.77-5,11.66-5,14.51s1.34,4.2,4.22,4.2c4.18,0,9.37-3.13,15.41-9.3a68,68,0,0,0,12.75-17.13c2.9-5.75,4.37-10.16,4.37-13.11a7.34,7.34,0,0,0,0-.81,5.77,5.77,0,0,1-3-1.62.42.42,0,0,1-.17-.1A3.06,3.06,0,0,1,207,25.71a2.52,2.52,0,0,1,1-2,3.64,3.64,0,0,1,2.34-.74,2.4,2.4,0,0,1,2.28,1.29,5.58,5.58,0,0,0,1.08,1.47,2.8,2.8,0,0,1,.85,1.26c.27.27,1.17.36,2.34-.52a4.1,4.1,0,0,1,2.29-1c1.33,0,1.4.95,1.4,1.14,0,.82-.58,1.53-1.77,2.15a3.6,3.6,0,0,1-2,.74H215.3a15.64,15.64,0,0,1,.65,3.62C216,37.08,214,42.32,210.24,48.65Zm104.12-5.22a4,4,0,0,0,2.44-.84,2.71,2.71,0,0,0,1.2-2.21,2.69,2.69,0,0,0-1.3-2.22,4.29,4.29,0,0,0-2.49-.82c-3,0-3.49,1.72-3.49,2.75a3.09,3.09,0,0,0,1.15,2.36A3.7,3.7,0,0,0,314.36,43.43Zm58.36,3.43a5.61,5.61,0,0,1-.08.86c0,.21-.1.53-2.23,3.94-1.69,3-3.11,5.45-4.23,7.5-4,7.35-7,12.48-9.16,15.24-4.61,6.1-9.12,9.2-13.39,9.2a5.52,5.52,0,0,1-4.24-2,7,7,0,0,1-1.82-4.43.58.58,0,0,1,0-.19c.29-1.17.89-1.41,1.34-1.41s.8.17,1.05,1a4.93,4.93,0,0,0,1.21,2.62,2.35,2.35,0,0,0,1.56.82c2.56,0,5.39-1.76,8.42-5.25a62.64,62.64,0,0,0,6.88-10.55L359.69,61l-2.36,2.38c-4.93,4.71-6.77,5.26-7.72,5.26a6.78,6.78,0,0,1-4.13-1.46,5.27,5.27,0,0,1-2.26-4.44c0-.14,0-.29,0-.43-4.29,4.35-7.46,6.47-9.65,6.47-2.77,0-4.3-1.65-4.3-4.65,0-2.74,1-5.91,3-9.42L335,50.39a55,55,0,0,0-5.69,5.5c-2.56,2.87-4.94,5.7-7.05,8.41-3.4,4.37-3.82,4.37-4.26,4.37a2.67,2.67,0,0,1-2.3-1.22,4.6,4.6,0,0,1-.75-2.66,10.59,10.59,0,0,1,1-3.9c.23-.54.48-1.13.76-1.76l-2.5,2.59c-.68.71-1.15,1.17-1.4,1.39l-1.35,1.24a19.34,19.34,0,0,1-1.57,1.34c-.34.24-.82.6-1.45,1.08a9.09,9.09,0,0,1-1.82,1.14l-1.68.77a10.12,10.12,0,0,1-4,.72c-2,0-4.44-1-4.44-5.53a7.51,7.51,0,0,1,.08-1.13c-3.71,3.43-7.16,5.44-10.26,6a6.42,6.42,0,0,1-1.15.09,4.6,4.6,0,0,1-4-1.87,6.34,6.34,0,0,1-1.27-3.81,13.91,13.91,0,0,1,.2-2.25L276,65c-2.87,2.65-5.1,3.93-6.84,3.93a6.67,6.67,0,0,1-4.3-1.4,5.26,5.26,0,0,1-2.09-4.42,8.24,8.24,0,0,1,.05-.85c-3.9,3.7-7.51,5.87-10.74,6.44a6.42,6.42,0,0,1-1.15.09,4.6,4.6,0,0,1-4-1.87,6.34,6.34,0,0,1-1.27-3.81,13.91,13.91,0,0,1,.2-2.25L241.71,65c-2.87,2.65-5.1,3.93-6.84,3.93a6.62,6.62,0,0,1-4.29-1.4,5.24,5.24,0,0,1-2.1-4.42,8.78,8.78,0,0,1,.06-1,45.23,45.23,0,0,1-4,3.25c-3.87,2.8-7.1,4.16-9.87,4.16a5.35,5.35,0,0,1-1.69-.26c-3.42-1-5.18-3-5.18-5.93,0-3.58,2.24-7.73,6.66-12.34s8.49-7,12.1-7a4.74,4.74,0,0,1,3.2,1.09,3.51,3.51,0,0,1,1.31,2.76c0,3-2.2,5.82-6.54,8.43s-7.7,3.83-10.45,3.83a4.45,4.45,0,0,1-.65,0,7.77,7.77,0,0,0-.77,3.37c0,2.14.9,3.1,2.93,3.1,2.24,0,5.25-1.59,9-4.74a46.06,46.06,0,0,0,7.53-7.5,3.83,3.83,0,0,1,.75-.79,39.11,39.11,0,0,1,3.34-3.7c5.1-5.07,9.89-7.64,14.21-7.64a4,4,0,0,1,3.43,1.39,1.89,1.89,0,0,1,.28.47c7-11.07,9.76-12.39,11.26-12.39a5.13,5.13,0,0,1,1.67.37,1.75,1.75,0,0,1,1.38,1.65,2.55,2.55,0,0,1-.47,1.32c-4,4.85-6.87,8.43-8.78,10.82-5.67,7.14-8.83,12.31-9.39,15.35a9.1,9.1,0,0,0-.21,1.92c0,2.28,1,2.59,2,2.59,3.39,0,8-3.29,13.63-9.78a3.74,3.74,0,0,1,.33-.3,40.24,40.24,0,0,1,4.91-5.77c5.1-5.07,9.89-7.64,14.21-7.64a4,4,0,0,1,3.43,1.39,1.89,1.89,0,0,1,.28.47c7-11.07,9.76-12.39,11.26-12.39a5.19,5.19,0,0,1,1.67.37,1.75,1.75,0,0,1,1.38,1.65,2.55,2.55,0,0,1-.47,1.32c-4,4.85-6.87,8.43-8.78,10.82C287.74,53,284.58,58.18,284,61.22a9.1,9.1,0,0,0-.21,1.92c0,2.28,1,2.59,2,2.59,3.16,0,7.41-2.91,12.61-8.66a50.55,50.55,0,0,1,2.49-4.51c3.09-5,5.49-7.33,7.55-7.39a3.82,3.82,0,0,1,2,.7,2.2,2.2,0,0,1,1.24,1.76.76.76,0,0,1-.13.41c-.26.35-.56.74-.91,1.17l-1.1,1.34c-.38.49-.92,1.18-1.6,2.07l-2,2.6c-4.43,5.72-5.36,8.24-5.36,9.35,0,2,.77,2,1.13,2,.61,0,1.77-.28,3.8-1.58a41.49,41.49,0,0,0,6.48-4.89.61.61,0,0,1,.15-.2,60.86,60.86,0,0,0,4.65-5.14c1.27-1.66,3.92-4.87,7.86-9.53a2.43,2.43,0,0,1,1.93-1.13c2.42,0,2.68,1.57,2.68,2.24a2.55,2.55,0,0,1-.29,1.19,74.79,74.79,0,0,0-6.68,10.68C336,44.87,339.67,43.27,341.28,43.27a2.52,2.52,0,0,1,.66-.07c1.75,0,2.76.92,2.76,2.53a2.69,2.69,0,0,1-.2,1c-.07.17-.18.46-3,4.12A68.62,68.62,0,0,0,336,58.1c-1.41,2.22-2.13,4.06-2.13,5.48s.3,1.64.31,1.64h0c1.35,0,4.29-1.5,10.72-8.62a7.6,7.6,0,0,0,.47-.6c.2-.25.36-.43.5-.59a37.45,37.45,0,0,1,5-5.94c5.12-5,9.89-7.59,14.17-7.59,2,0,3.26.68,3.87,2l.33.89.5-.12a2.65,2.65,0,0,1,2.16.8h0A2.12,2.12,0,0,1,372.72,46.86ZM348.84,65.51c1.78,0,5.14-1.56,11-9l7.49-10.29a1.36,1.36,0,0,0-1-.3c-2.83,0-6.69,2.29-11.48,6.8s-7.18,8.16-7.18,10.87C347.71,65.51,348.47,65.51,348.84,65.51Zm-62.09-19a1.52,1.52,0,0,0-.86-.21c-2.83,0-6.69,2.27-11.48,6.73s-7.18,8.13-7.18,10.94c0,1.93.76,1.93,1.13,1.93,1.29,0,4.06-1.45,9.95-8.39h0C279.17,56.57,282,52.87,286.75,46.56Zm-34.26,0a1.49,1.49,0,0,0-.86-.21c-2.83,0-6.69,2.27-11.48,6.73S233,61.21,233,64c0,1.93.76,1.93,1.13,1.93,1.29,0,4.06-1.45,10-8.39h0C244.91,56.57,247.74,52.87,252.49,46.56Zm-24.78,1.65a1.32,1.32,0,0,0,.11-.43s-.24-.18-1.16-.18c-.74,0-2.19.46-4.88,2.69h0a33.27,33.27,0,0,0-6.43,6.87c1.69-.08,4-1,6.82-2.84S227,50.39,227.71,48.21ZM50.18,84.2H29.37a.71.71,0,0,0-.7.7v6.72a.7.7,0,0,0,.7.7h5.74v37.49H29.37a.71.71,0,0,0-.7.7v6.65a.71.71,0,0,0,.7.7H50.18a.7.7,0,0,0,.7-.7v-6.65a.7.7,0,0,0-.7-.7H44.45V92.32h5.73a.7.7,0,0,0,.7-.7V84.9A.7.7,0,0,0,50.18,84.2Zm17.07-3.73H59.31a.7.7,0,0,0-.7.7v56a.71.71,0,0,0,.7.7h7.94a.71.71,0,0,0,.7-.7v-56A.7.7,0,0,0,67.25,80.47Zm18,0H77.28a.7.7,0,0,0-.71.7v56a.71.71,0,0,0,.71.7h7.93a.7.7,0,0,0,.7-.7v-56A.7.7,0,0,0,85.21,80.47Zm42.51,20.75H120a.71.71,0,0,0-.7.7v20a8.58,8.58,0,0,1-8.28,8.85c-4.59,0-7.45-3.36-7.45-8.78V101.92a.71.71,0,0,0-.7-.7H95.09a.7.7,0,0,0-.7.7V122.3c0,10.1,5.52,16.38,14.4,16.38a14.39,14.39,0,0,0,10.54-4.61c0,.27,0,.53,0,.77v2.32a.71.71,0,0,0,.7.7h7.71a.71.71,0,0,0,.71-.7V101.92A.71.71,0,0,0,127.72,101.22Zm23.91,14c-3.21-1.38-6-2.58-6-4.36s1.6-2.66,3.19-2.66a6.74,6.74,0,0,1,5.26,2.69.7.7,0,0,0,.49.29.68.68,0,0,0,.55-.16c1.61-1.39,3.28-2.83,5-4.16a.71.71,0,0,0,.13-1c-2.62-3.55-6.59-5.43-11.49-5.43-5.79,0-11.93,3.75-11.93,10.7s6,9.52,10.87,11.57c3.37,1.42,6.27,2.64,6.27,4.85,0,1.43-1.8,3-4.39,3a10.63,10.63,0,0,1-8.7-4.4.72.72,0,0,0-1-.13l-5.17,4.48a.7.7,0,0,0-.11.93c3.23,4.57,8.54,7.09,14.95,7.09,8,0,13.5-4.71,13.5-11.45C163,120.15,156.7,117.43,151.63,115.24Zm35.3-14H182.1v-13a.7.7,0,0,0-.71-.7h-7.86a.7.7,0,0,0-.7.7v13H168a.71.71,0,0,0-.71.7V109a.7.7,0,0,0,.71.7h4.83v27.45a.71.71,0,0,0,.7.7h7.86a.71.71,0,0,0,.71-.7V109.71h4.83a.7.7,0,0,0,.7-.7v-7.09A.7.7,0,0,0,186.93,101.22Zm24.63-.82a11.39,11.39,0,0,0-8.81,4.08v-2.56a.7.7,0,0,0-.7-.7h-7.71a.71.71,0,0,0-.7.7v35.24a.71.71,0,0,0,.7.7h7.71a.7.7,0,0,0,.7-.7V118.64c0-5.52,3.47-9.23,8.83-9.45a.7.7,0,0,0,.68-.7V101.1A.7.7,0,0,0,211.56,100.4ZM251.18,130v7.17a.71.71,0,0,1-.7.7h-2.17a8,8,0,0,1-8.09-5.39c-2.11,2.68-6.23,6.13-13.39,6.13-8.76,0-12.76-5.74-12.76-11.07,0-5.7,4.34-12.35,16.57-12.35a41.24,41.24,0,0,1,8.28,1v-.93c0-4.06-2.87-6.69-7.3-6.69a9.12,9.12,0,0,0-7.43,3.88.73.73,0,0,1-.47.29.76.76,0,0,1-.54-.13l-5.61-4.26a.7.7,0,0,1-.18-.91c.18-.3,4.44-7.29,14.53-7.29,9.74,0,16,5.84,16,14.89V127.9a1.29,1.29,0,0,0,1.47,1.39h1A.7.7,0,0,1,251.18,130Zm-12.46-7.22a37.45,37.45,0,0,0-6.8-.74c-5,0-8.43,2-8.43,5,0,2.36,1.89,3.78,5.06,3.78A10.23,10.23,0,0,0,238.72,122.77Zm35-21.55h-4.83v-13a.7.7,0,0,0-.7-.7h-7.86a.7.7,0,0,0-.71.7v13h-4.83a.7.7,0,0,0-.7.7V109a.7.7,0,0,0,.7.7h4.83v27.45a.71.71,0,0,0,.71.7h7.86a.71.71,0,0,0,.7-.7V109.71h4.83a.7.7,0,0,0,.71-.7v-7.09A.71.71,0,0,0,273.68,101.22Zm42.25,18.24A18.89,18.89,0,1,1,297,100.4,18.81,18.81,0,0,1,315.93,119.46Zm-9.12,0c0-6.35-4-10.79-9.77-10.79s-9.85,4.44-9.85,10.79,4.14,10.87,9.85,10.87S306.81,125.86,306.81,119.46Zm33.42-19.06a11.39,11.39,0,0,0-8.81,4.08v-2.56a.7.7,0,0,0-.7-.7H323a.7.7,0,0,0-.7.7v35.24a.7.7,0,0,0,.7.7h7.71a.7.7,0,0,0,.7-.7V118.64c0-5.52,3.47-9.23,8.83-9.45a.7.7,0,0,0,.68-.7V101.1A.7.7,0,0,0,340.23,100.4Zm21.35,14.84c-3.21-1.38-6-2.58-6-4.36s1.6-2.66,3.19-2.66a6.76,6.76,0,0,1,5.26,2.69.68.68,0,0,0,.49.29.69.69,0,0,0,.55-.16c1.61-1.39,3.28-2.83,5-4.16a.71.71,0,0,0,.14-1c-2.62-3.55-6.59-5.43-11.5-5.43-5.78,0-11.93,3.75-11.93,10.7s6,9.52,10.88,11.57c3.36,1.42,6.26,2.64,6.26,4.85,0,1.43-1.8,3-4.38,3a10.65,10.65,0,0,1-8.71-4.4.68.68,0,0,0-.49-.29.66.66,0,0,0-.54.16l-5.17,4.48a.7.7,0,0,0-.11.93c3.23,4.57,8.54,7.09,14.94,7.09,8,0,13.5-4.71,13.5-11.45C373,120.15,366.65,117.43,361.58,115.24ZM52,28H29.62a.7.7,0,0,0-.7.7v5.52a.71.71,0,0,0,.7.7h7.52v32.8a.7.7,0,0,0,.7.7h6a.7.7,0,0,0,.7-.7V34.93H52a.71.71,0,0,0,.71-.7V28.71A.7.7,0,0,0,52,28ZM82,67.73V52.51C82,44.86,77.78,40.1,71,40.1a10.94,10.94,0,0,0-7.68,3.17V25.92a.7.7,0,0,0-.7-.7H56.9a.7.7,0,0,0-.7.7V67.73a.7.7,0,0,0,.7.7h5.76a.7.7,0,0,0,.7-.7V52.83c.21-3.63,2.82-6.48,6-6.48,3.41,0,5.44,2.39,5.44,6.38v15a.71.71,0,0,0,.71.7h5.81A.7.7,0,0,0,82,67.73ZM100.45,69c-8.22,0-14.18-6.09-14.18-14.47S92.09,40.1,100.11,40.1s13.06,5.53,13.06,14.42V56a.71.71,0,0,1-.71.7H93.6c.69,3.81,3.29,6.06,7.07,6.06a8.09,8.09,0,0,0,6.91-3.54.69.69,0,0,1,.47-.29.68.68,0,0,1,.53.13l4,3a.7.7,0,0,1,.14,1C110.33,66.12,107.22,69,100.45,69Zm5.37-17.63c-.66-3.15-2.77-5-5.76-5a6.25,6.25,0,0,0-6.22,5ZM9.42,9.21H37.93V.07H.26V35.24H9.42ZM400.26.07H362.59V9.21h28.5v26h9.17ZM37.93,150.93H9.42v-26H.26v35.17H37.93Zm362.33-26h-9.17v26h-28.5v9.14h37.67Z"/></svg>